<svg xmlns="http://www.w3.org/2000/svg" viewBox="0 0 1500 1500">
  <defs>
    <style>
      .cls-1,
      .cls-2 {
        fill: none;
      }

      .cls-1 {
        stroke: #000;
        stroke-miterlimit: 10;
        stroke-width: 113.39px;
      }
    </style>
  </defs>
  <g id="Layer_2" data-name="Layer 2">
    <g id="Layer_1-2" data-name="Layer 1">
      <path class="cls-1"
        d="M1137.37,515.67q0,.95.06,1.92c-.06,4.85-.21,9.69-.46,14.49a389.79,389.79,0,0,1-16.47,94.09c-29.58,127.23-171,308.14-171.09,496.11H550.59c-.1-188-141.52-368.88-171.09-496.11A389.8,389.8,0,0,1,363,532.08q.75,9,2.55,18.67-2.37-18.79-2.95-35.08-.06-1.7-.09-3.36C362.53,300,533.42,127.53,745.16,125c1.56,0,3.11,0,4.68,0s3.34,0,5,0c211.72,2.5,382.62,175,382.62,387.28C1137.45,513.42,1137.42,514.54,1137.37,515.67Z" />
      <path class="cls-1" d="M750,1122.43v-.15" />
      <polygon class="cls-1"
        points="949.32 1375 550.68 1375 550.68 1122.28 949.19 1122.28 949.19 1248.87 949.32 1375" />
      <line class="cls-1" x1="750" y1="1122.43" x2="750" y2="472.64" />
    </g>
  </g>
</svg>