<svg xmlns="http://www.w3.org/2000/svg" viewBox="0 0 971.01 1289.46">
  <g data-name="Layer 2">
    <path d="M879.3 645.15c14.15-9.24 27.87-12.18 41.57-6.14 21.55 9.51 29.68 29 29 50.44-.64 18.4-4.88 37.08-10.16 54.86-9 30.48-21.35 60-29.93 90.56a225.14 225.14 0 0 0-8.48 58.2c-.29 31.22-32.1 53.25-61.55 36.8a9.94 9.94 0 0 0-2.77-.3c-2.15 18.41-4.53 36.83-6.4 55.3-2 19.88-3.41 39.82-5.31 59.72-2.77 28.67-16.53 51.81-38.24 69.67-28.24 23.21-57.73 44.88-86.33 67.65-21.75 17.32-43.54 34.64-64.25 53.18-21.73 19.4-47.25 30.75-75.41 31.79-50.19 1.84-100.56 2-150.73-.1-30.21-1.26-56.05-15.31-79.43-36-30.36-26.86-63.74-50.37-95.53-75.58-17.63-14-35.23-28-52.25-42.73-24.77-21.45-35.83-49.35-38-81.76-2.24-33.61-5.94-67.12-8.95-100-10.14 1.6-19.18 4.16-28.24 4.16-17.21.08-35.33-15.59-35.55-32.67-.64-46.6-16.09-89.25-31.53-132.22a470.08 470.08 0 0 1-18.18-65.7c-3.67-18.12-.5-36 11.43-51.45 13.5-17.52 33.85-21.83 53.18-10.95 1.28.7 2.47 1.58 5.43 3.5-4.22-20.56-8.31-39.27-11.87-58.08-12.57-67.11-17.3-134.58-17.68-203.1C62.32 244.69 177.36 109.48 291.52 62c65.72-27.37 134.15-43.38 205.08-40.52 94.61 3.79 184.21 27.27 261.13 85.91 64.18 48.94 111.14 111.14 137.18 188.07 12.47 36.9 13.6 75.54 14.13 114 1 71.93-9.7 142.59-25 212.66-1.45 6.93-2.84 13.88-4.74 23.03Z" style="fill:none;stroke:#1d1d1b;stroke-linecap:round;stroke-linejoin:round;stroke-width:80px;" data-name="Layer 1"/>
  </g>
</svg>