<svg xmlns="http://www.w3.org/2000/svg" viewBox="0 0 1500 1500">
  <defs>
    <style>
      .cls-1 {
        fill: #fff;
        stroke: #000;
        stroke-linejoin: round;
        stroke-width: 31.67px;
      }
    </style>
  </defs>
  <g id="Layer_2" data-name="Layer 2">
    <g id="Layer_1-2" data-name="Layer 1">
      <path class="cls-1"
        d="M307.92,750.51c-15.88-10.38-31.28-13.67-46.67-6.88-24.19,10.66-33.33,32.51-32.5,56.61.71,20.66,5.48,41.63,11.4,61.58,10.16,34.21,24,67.35,33.61,101.67a253.52,253.52,0,0,1,9.51,65.26c.33,35.06,36,59.78,69.1,41.32.55-.31,1.34-.16,3.19-.34,2.41,20.67,5.09,41.34,7.18,62.07,2.26,22.33,3.83,44.72,6,67.06,3.08,32.18,18.55,58.17,42.93,78.21,31.69,26.06,64.8,50.38,96.91,75.94,24.42,19.44,48.87,38.91,72.12,59.7,24.4,21.8,53,34.52,84.65,35.69,56.35,2.07,112.9,2.24,169.23-.11,33.9-1.42,62.92-17.2,89.15-40.39,34.1-30.15,71.49-56.54,107.24-84.83,19.82-15.67,39.57-31.46,58.66-48,27.83-24.08,40.24-55.4,42.67-91.8,2.52-37.74,6.69-75.36,10.06-112.25,11.38,1.78,21.53,4.65,31.69,4.7,19.34.1,39.67-17.5,39.93-36.67.71-52.31,18.06-100.19,35.39-148.43a529,529,0,0,0,20.35-73.8c4.11-20.34.54-40.45-12.84-57.75-15.22-19.67-38.07-24.51-59.76-12.3-1.44.81-2.78,1.78-6.1,3.94,4.74-23.09,9.37-44.08,13.33-65.2,14.11-75.34,19.4-151.09,19.85-228,.91-156.57-128.23-308.37-256.45-361.71-73.78-30.69-150.6-48.65-230.24-45.45C631.26,54.64,530.68,81,444.33,146.82,372.27,201.76,319.56,271.6,290.31,358c-14,41.42-15.27,84.79-15.86,127.94-1.12,80.75,10.91,160.07,28.09,238.73C304.24,732.43,305.79,740.27,307.92,750.51Z" />
    </g>
  </g>
</svg>