<?xml version="1.0" encoding="utf-8"?>
<!-- Generator: Adobe Illustrator 26.0.2, SVG Export Plug-In . SVG Version: 6.00 Build 0)  -->
<svg version="1.1" id="Layer_1" xmlns="http://www.w3.org/2000/svg" xmlns:xlink="http://www.w3.org/1999/xlink" x="0px" y="0px"
	 viewBox="0 0 1400 1400" style="enable-background:new 0 0 1400 1400;" xml:space="preserve">
<style type="text/css">
	.st0{fill:#FFFFFF;}
	.st1{fill:none;stroke:#1D1D1B;stroke-width:28.3465;stroke-linecap:round;stroke-linejoin:round;}
</style>
<g>
	<rect class="st0" width="1400" height="1400"/>
	<path class="st1" d="M699.7,1330.4c-348.2-0.2-630.2-282.7-630-630.9c0.2-253.1,151.6-481.5,384.7-580.1
		c320.7-135.5,690.6,14.7,826.1,335.4s-14.7,690.6-335.4,826.1C867.4,1313.7,784,1330.6,699.7,1330.4z"/>
	<path class="st1" d="M963.9,700.3c9.5-6.2,18.7-8.2,27.9-4.1c14.4,6.4,19.9,19.4,19.4,33.8c-0.4,12.3-3.3,24.8-6.8,36.8
		c-6.1,20.4-14.3,40.2-20.1,60.7c-3.6,12.7-5.5,25.8-5.7,39c-0.2,20.9-21.5,35.7-41.2,24.7c-0.6-0.2-1.2-0.2-1.9-0.2
		c-1.4,12.3-3,24.7-4.3,37.1c-1.3,13.3-2.3,26.7-3.6,40c-1.9,19.2-11.1,34.7-25.6,46.7c-18.9,15.6-38.7,30.1-57.8,45.3
		c-14.6,11.6-29.2,23.2-43.1,35.6c-14.6,13-31.7,20.6-50.5,21.3c-33.6,1.2-67.4,1.3-101-0.1c-20.2-0.8-37.6-10.3-53.2-24.1
		c-20.3-18-42.7-33.8-64-50.6c-11.8-9.4-23.6-18.8-35-28.6c-16.6-14.4-24-33.1-25.5-54.8c-1.5-22.5-4-45-6-67
		c-6.8,1.1-12.9,2.8-18.9,2.8c-11.5,0.1-23.7-10.4-23.8-21.9c-0.4-31.2-10.8-59.8-21.1-88.6c-5.1-14.4-9.2-29.1-12.2-44
		c-2.5-12.1-0.3-24.1,7.7-34.5c9.1-11.7,22.7-14.6,35.7-7.3c0.9,0.5,1.7,1.1,3.6,2.3c-2.8-13.8-5.6-26.3-8-38.9
		c-8.4-45-11.6-90.2-11.8-136.1c-0.5-93.5,76.5-184.1,153-215.9c44-18.3,89.9-29,137.4-27.1c63.4,2.5,123.4,18.3,175,57.6
		c43,32.8,74.5,74.5,91.9,126c8.4,24.7,9.1,50.6,9.5,76.4c0.7,48.2-6.5,95.6-16.8,142.5C966.1,689.5,965.2,694.2,963.9,700.3z"/>
</g>
</svg>
