<svg xmlns="http://www.w3.org/2000/svg" viewBox="0 0 1500 1500">
  <defs>
    <style>
      .cls-1 {
        fill: #f7e577;
      }

      .cls-2 {
        fill: none;
      }
    </style>
  </defs>
  <g id="Layer_2" data-name="Layer 2">
    <g id="Layer_1-2" data-name="Layer 1">
      <polygon class="cls-1"
        points="715.6 1012.75 397.69 1330.17 170.6 1102.77 489.76 785.11 161.63 617.98 1349.79 149.37 881.02 1337.94 715.6 1012.75" />
      <path
        d="M1249.15,250c-125.47,318.15-249.33,632.2-374.68,950L730.75,917.5l-333,332.5-146.9-147.11L585.21,770.1,299.47,624.56,1249.15,250M1450.42,48.73l-242.87,95.79-830,327.35L257.87,519.08,23.8,611.4,248,725.59l146.32,74.53-43.46,43.26-180,179.15-80.5,80.12L170.62,1183l146.9,147.11,80.12,80.23,80.23-80.11L700.44,1108l73,143.44,114.16,224.43L980,1241.63l165.84-420.51L1354.63,291.6l95.79-242.87Z" />
      <rect class="cls-2" width="1500" height="1500" />
    </g>
  </g>
</svg>