<svg xmlns="http://www.w3.org/2000/svg" viewBox="0 0 1500 1502.54"><defs><style>.cls-1{fill:#f7e577;}.cls-2{fill:#1d1d1b;}</style></defs><g id="Layer_2" data-name="Layer 2"><g id="Layer_1-2" data-name="Layer 1"><polygon class="cls-1" points="70.21 1281.62 585.91 768.35 193.66 568.55 1411.95 88.05 931.29 1306.78 734.34 919.6 220.78 1432.39 70.21 1281.62"/><path class="cls-2" d="M1323.89,176.11,1023.1,938.78,925.56,1186.1,809.51,958,747.6,836.26,651,932.74l-430.15,429.5-80.41-80.52,270.78-269.5L572.38,851.8l97-96.59-122-62.14L396,616l-81.75-41.64L614.68,455.82l709.21-279.71M1500,0,73.05,562.79,502.39,781.48,0,1281.51c73.71,73.81,146.18,146.39,220.73,221l500.35-499.6L937,1427.45,1500,0Z"/></g></g></svg>